<svg width="36" height="36" viewBox="0 0 36 36" fill="none" xmlns="http://www.w3.org/2000/svg">
<circle cx="18" cy="18" r="18" fill="#0D1C32"/>
<path d="M18.6667 3.33341C18.6667 2.96522 18.3682 2.66675 18 2.66675C17.6318 2.66675 17.3334 2.96522 17.3334 3.33341V6.00008C17.3334 6.36827 17.6318 6.66675 18 6.66675C18.3682 6.66675 18.6667 6.36827 18.6667 6.00008V3.33341Z" fill="white"/>
<path d="M18.6667 32.6667C18.6667 33.0349 18.3682 33.3334 18 33.3334C17.6318 33.3334 17.3334 33.0349 17.3334 32.6667V30.0001C17.3334 29.6319 17.6318 29.3334 18 29.3334C18.3682 29.3334 18.6667 29.6319 18.6667 30.0001V32.6667Z" fill="white"/>
<path d="M24.3334 5.2441C24.5174 4.92524 24.9252 4.81599 25.244 5.00008C25.5629 5.18418 25.6722 5.5919 25.4881 5.91077L24.1547 8.22017C23.9706 8.53904 23.5629 8.64829 23.244 8.46419C22.9252 8.2801 22.8159 7.87237 23 7.55351L24.3334 5.2441Z" fill="white"/>
<path d="M26.1547 30.7561C26.3388 31.0749 26.2296 31.4827 25.9107 31.6667C25.5918 31.8508 25.1841 31.7416 25 31.4227L23.6667 29.1133C23.4826 28.7945 23.5918 28.3867 23.9107 28.2026C24.2296 28.0185 24.6373 28.1278 24.8214 28.4467L26.1547 30.7561Z" fill="white"/>
<path d="M30.0893 9.66675C30.4082 9.48265 30.8159 9.5919 31 9.91077C31.1841 10.2296 31.0749 10.6374 30.756 10.8215L28.4466 12.1548C28.1277 12.3389 27.72 12.2296 27.5359 11.9108C27.3518 11.5919 27.4611 11.1842 27.7799 11.0001L30.0893 9.66675Z" fill="white"/>
<path d="M30.756 25.8454C31.0749 26.0295 31.1841 26.4372 31 26.7561C30.8159 27.0749 30.4082 27.1842 30.0893 27.0001L27.7799 25.6667C27.4611 25.4827 27.3518 25.0749 27.5359 24.7561C27.72 24.4372 28.1277 24.3279 28.4466 24.512L30.756 25.8454Z" fill="white"/>
<path d="M32.6667 17.3334C33.0349 17.3334 33.3334 17.6319 33.3334 18.0001C33.3334 18.3683 33.0349 18.6667 32.6667 18.6667H30C29.6318 18.6667 29.3334 18.3683 29.3334 18.0001C29.3334 17.6319 29.6318 17.3334 30 17.3334H32.6667Z" fill="white"/>
<path d="M6.00002 18.6667C6.36821 18.6667 6.66669 18.3683 6.66669 18.0001C6.66669 17.6319 6.36821 17.3334 6.00002 17.3334H3.33335C2.96516 17.3334 2.66669 17.6319 2.66669 18.0001C2.66669 18.3683 2.96516 18.6667 3.33335 18.6667H6.00002Z" fill="white"/>
<path d="M10.3334 5.91077C10.1493 5.5919 10.2585 5.18418 10.5774 5.00008C10.8962 4.81599 11.304 4.92524 11.4881 5.2441L12.8214 7.55351C13.0055 7.87237 12.8962 8.2801 12.5774 8.46419C12.2585 8.64829 11.8508 8.53904 11.6667 8.22017L10.3334 5.91077Z" fill="white"/>
<path d="M10.8214 31.4227C10.6373 31.7416 10.2296 31.8508 9.91071 31.6667C9.59184 31.4827 9.48259 31.0749 9.66669 30.7561L11 28.4467C11.1841 28.1278 11.5918 28.0185 11.9107 28.2026C12.2296 28.3867 12.3388 28.7945 12.1547 29.1133L10.8214 31.4227Z" fill="white"/>
<path d="M5.24404 11.0001C4.92518 10.816 4.81593 10.4083 5.00002 10.0894C5.18412 9.77053 5.59184 9.66128 5.91071 9.84538L8.22011 11.1787C8.53898 11.3628 8.64823 11.7705 8.46413 12.0894C8.28004 12.4083 7.87231 12.5175 7.55345 12.3334L5.24404 11.0001Z" fill="white"/>
<path d="M5.24404 26.8215C4.92518 27.0055 4.51745 26.8963 4.33335 26.5774C4.14926 26.2586 4.25851 25.8508 4.57737 25.6667L6.88678 24.3334C7.20564 24.1493 7.61337 24.2586 7.79746 24.5774C7.98156 24.8963 7.87231 25.304 7.55345 25.4881L5.24404 26.8215Z" fill="white"/>
<path fill-rule="evenodd" clip-rule="evenodd" d="M18 11.3333C17.6318 11.3333 17.3333 11.6317 17.3333 11.9999V17.4471C16.5565 17.7216 16 18.4624 16 19.3333C16 20.4378 16.8954 21.3333 18 21.3333C18.2595 21.3333 18.5074 21.2838 18.7349 21.1939L23.1633 23.5007C23.4789 23.6652 23.8681 23.5518 24.0461 23.2435C24.2358 22.915 24.1125 22.4945 23.7754 22.3205L19.7754 20.255C19.9189 19.9792 20 19.6657 20 19.3333C20 18.4624 19.4435 17.7216 18.6667 17.4471V11.9999C18.6667 11.6317 18.3682 11.3333 18 11.3333ZM18 20C18.3682 20 18.6667 19.7015 18.6667 19.3333C18.6667 18.9651 18.3682 18.6667 18 18.6667C17.6318 18.6667 17.3333 18.9651 17.3333 19.3333C17.3333 19.7015 17.6318 20 18 20Z" fill="white"/>
</svg>
