<svg width="392" height="265" viewBox="0 0 392 265" fill="none" xmlns="http://www.w3.org/2000/svg">
<g filter="url(#filter0_d_14_1034)">
<rect x="4" width="384" height="257" rx="12" fill="#F4F3FB"/>
<rect x="112.667" y="169.333" width="175" height="25" rx="1" fill="#4B4F61"/>
<g filter="url(#filter1_bi_14_1034)">
<mask id="path-4-inside-1_14_1034" fill="white">
<path fill-rule="evenodd" clip-rule="evenodd" d="M179.333 37.5C179.333 36.6716 180.005 36 180.833 36H219.5C220.328 36 221 36.6716 221 37.5V184.5C221 185.328 220.328 186 219.5 186H180.833C180.005 186 179.333 185.328 179.333 184.5V37.5ZM121 87.5C121 86.6716 121.672 86 122.5 86H161.167C161.995 86 162.667 86.6716 162.667 87.5V184.5C162.667 185.328 161.995 186 161.167 186H122.5C121.672 186 121 185.328 121 184.5V87.5ZM239.167 111C238.338 111 237.667 111.672 237.667 112.5V184.5C237.667 185.328 238.338 186 239.167 186H277.833C278.662 186 279.333 185.328 279.333 184.5V112.5C279.333 111.672 278.662 111 277.833 111H239.167Z"/>
</mask>
<path fill-rule="evenodd" clip-rule="evenodd" d="M179.333 37.5C179.333 36.6716 180.005 36 180.833 36H219.5C220.328 36 221 36.6716 221 37.5V184.5C221 185.328 220.328 186 219.5 186H180.833C180.005 186 179.333 185.328 179.333 184.5V37.5ZM121 87.5C121 86.6716 121.672 86 122.5 86H161.167C161.995 86 162.667 86.6716 162.667 87.5V184.5C162.667 185.328 161.995 186 161.167 186H122.5C121.672 186 121 185.328 121 184.5V87.5ZM239.167 111C238.338 111 237.667 111.672 237.667 112.5V184.5C237.667 185.328 238.338 186 239.167 186H277.833C278.662 186 279.333 185.328 279.333 184.5V112.5C279.333 111.672 278.662 111 277.833 111H239.167Z" fill="#F1F1F1" fill-opacity="0.1"/>
<path fill-rule="evenodd" clip-rule="evenodd" d="M179.333 37.5C179.333 36.6716 180.005 36 180.833 36H219.5C220.328 36 221 36.6716 221 37.5V184.5C221 185.328 220.328 186 219.5 186H180.833C180.005 186 179.333 185.328 179.333 184.5V37.5ZM121 87.5C121 86.6716 121.672 86 122.5 86H161.167C161.995 86 162.667 86.6716 162.667 87.5V184.5C162.667 185.328 161.995 186 161.167 186H122.5C121.672 186 121 185.328 121 184.5V87.5ZM239.167 111C238.338 111 237.667 111.672 237.667 112.5V184.5C237.667 185.328 238.338 186 239.167 186H277.833C278.662 186 279.333 185.328 279.333 184.5V112.5C279.333 111.672 278.662 111 277.833 111H239.167Z" fill="url(#paint0_linear_14_1034)" fill-opacity="0.6"/>
<path d="M180.833 35.8C179.894 35.8 179.133 36.5611 179.133 37.5H179.533C179.533 36.782 180.115 36.2 180.833 36.2V35.8ZM219.5 35.8H180.833V36.2H219.5V35.8ZM221.2 37.5C221.2 36.5611 220.439 35.8 219.5 35.8V36.2C220.218 36.2 220.8 36.782 220.8 37.5H221.2ZM221.2 184.5V37.5H220.8V184.5H221.2ZM219.5 186.2C220.439 186.2 221.2 185.439 221.2 184.5H220.8C220.8 185.218 220.218 185.8 219.5 185.8V186.2ZM180.833 186.2H219.5V185.8H180.833V186.2ZM179.133 184.5C179.133 185.439 179.894 186.2 180.833 186.2V185.8C180.115 185.8 179.533 185.218 179.533 184.5H179.133ZM179.133 37.5V184.5H179.533V37.5H179.133ZM122.5 85.8C121.561 85.8 120.8 86.5611 120.8 87.5H121.2C121.2 86.782 121.782 86.2 122.5 86.2V85.8ZM161.167 85.8H122.5V86.2H161.167V85.8ZM162.867 87.5C162.867 86.5611 162.106 85.8 161.167 85.8V86.2C161.885 86.2 162.467 86.782 162.467 87.5H162.867ZM162.867 184.5V87.5H162.467V184.5H162.867ZM161.167 186.2C162.106 186.2 162.867 185.439 162.867 184.5H162.467C162.467 185.218 161.885 185.8 161.167 185.8V186.2ZM122.5 186.2H161.167V185.8H122.5V186.2ZM120.8 184.5C120.8 185.439 121.561 186.2 122.5 186.2V185.8C121.782 185.8 121.2 185.218 121.2 184.5H120.8ZM120.8 87.5V184.5H121.2V87.5H120.8ZM237.867 112.5C237.867 111.782 238.449 111.2 239.167 111.2V110.8C238.228 110.8 237.467 111.561 237.467 112.5H237.867ZM237.867 184.5V112.5H237.467V184.5H237.867ZM239.167 185.8C238.449 185.8 237.867 185.218 237.867 184.5H237.467C237.467 185.439 238.228 186.2 239.167 186.2V185.8ZM277.833 185.8H239.167V186.2H277.833V185.8ZM279.133 184.5C279.133 185.218 278.551 185.8 277.833 185.8V186.2C278.772 186.2 279.533 185.439 279.533 184.5H279.133ZM279.133 112.5V184.5H279.533V112.5H279.133ZM277.833 111.2C278.551 111.2 279.133 111.782 279.133 112.5H279.533C279.533 111.561 278.772 110.8 277.833 110.8V111.2ZM239.167 111.2H277.833V110.8H239.167V111.2Z" fill="url(#paint1_linear_14_1034)" fill-opacity="0.1" mask="url(#path-4-inside-1_14_1034)"/>
</g>
</g>
<defs>
<filter id="filter0_d_14_1034" x="0" y="0" width="392" height="265" filterUnits="userSpaceOnUse" color-interpolation-filters="sRGB">
<feFlood flood-opacity="0" result="BackgroundImageFix"/>
<feColorMatrix in="SourceAlpha" type="matrix" values="0 0 0 0 0 0 0 0 0 0 0 0 0 0 0 0 0 0 127 0" result="hardAlpha"/>
<feOffset dy="4"/>
<feGaussianBlur stdDeviation="2"/>
<feComposite in2="hardAlpha" operator="out"/>
<feColorMatrix type="matrix" values="0 0 0 0 0 0 0 0 0 0 0 0 0 0 0 0 0 0 0.25 0"/>
<feBlend mode="normal" in2="BackgroundImageFix" result="effect1_dropShadow_14_1034"/>
<feBlend mode="normal" in="SourceGraphic" in2="effect1_dropShadow_14_1034" result="shape"/>
</filter>
<filter id="filter1_bi_14_1034" x="118" y="33" width="164.333" height="156" filterUnits="userSpaceOnUse" color-interpolation-filters="sRGB">
<feFlood flood-opacity="0" result="BackgroundImageFix"/>
<feGaussianBlur in="BackgroundImage" stdDeviation="1.5"/>
<feComposite in2="SourceAlpha" operator="in" result="effect1_backgroundBlur_14_1034"/>
<feBlend mode="normal" in="SourceGraphic" in2="effect1_backgroundBlur_14_1034" result="shape"/>
<feColorMatrix in="SourceAlpha" type="matrix" values="0 0 0 0 0 0 0 0 0 0 0 0 0 0 0 0 0 0 127 0" result="hardAlpha"/>
<feOffset dy="0.5"/>
<feGaussianBlur stdDeviation="1"/>
<feComposite in2="hardAlpha" operator="arithmetic" k2="-1" k3="1"/>
<feColorMatrix type="matrix" values="0 0 0 0 1 0 0 0 0 1 0 0 0 0 1 0 0 0 0.4 0"/>
<feBlend mode="normal" in2="shape" result="effect2_innerShadow_14_1034"/>
</filter>
<linearGradient id="paint0_linear_14_1034" x1="127.597" y1="66" x2="299.822" y2="91.249" gradientUnits="userSpaceOnUse">
<stop stop-color="#13AB53"/>
<stop offset="1" stop-color="#3FD17D"/>
</linearGradient>
<linearGradient id="paint1_linear_14_1034" x1="125.948" y1="42.8182" x2="279.333" y2="42.8182" gradientUnits="userSpaceOnUse">
<stop stop-color="#FD84DC"/>
<stop offset="1" stop-color="#7FD6FA"/>
</linearGradient>
</defs>
</svg>
