<svg width="114" height="40" viewBox="0 0 114 40" fill="none" xmlns="http://www.w3.org/2000/svg">
<path fill-rule="evenodd" clip-rule="evenodd" d="M0 7.61905C0 3.41116 3.4774 0 7.76699 0H40V32.381C40 36.5888 36.5226 40 32.233 40H0V7.61905ZM1.94175 9.71428C1.94175 5.5064 5.41915 2.09524 9.70874 2.09524H37.6699V30.2857C37.6699 34.4936 34.1925 37.9048 29.9029 37.9048H26.6019V23.5659C26.6019 20.8199 27.99 18.26 30.2913 16.7619V37.1825C32.7195 35.8944 34.3689 33.3742 34.3689 30.4762V6.28571H13.3981C9.10847 6.28571 5.63107 9.69688 5.63107 13.9048V37.9048H1.94175V9.71428ZM9.70874 37.9048H16.5049V9.33333C12.3531 11.3115 9.70874 15.5006 9.70874 20.0995V37.9048ZM18.6408 37.9048H24.466V13.1429C20.9045 14.8604 18.6408 18.4653 18.6408 22.4193V37.9048Z" fill="url(#paint0_linear_14_1012)"/>
<path fill-rule="evenodd" clip-rule="evenodd" d="M101.721 8.26355C101.721 9.30605 102.124 10.2775 102.93 11.1778C103.759 12.0545 104.754 12.8363 105.915 13.5234C107.1 14.1868 108.272 14.874 109.433 15.5847C110.594 16.2718 111.578 17.1248 112.383 18.1436C113.212 19.1624 113.627 20.2878 113.627 21.5199C113.627 23.4627 112.904 25.0502 111.459 26.2822C110.038 27.5143 108.107 28.1303 105.666 28.1303C103.226 28.1303 100.809 27.6683 98.416 26.7442V25.0739C100.833 26.2822 102.882 26.8864 104.564 26.8864C106.27 26.8864 107.597 26.4718 108.545 25.6425C109.493 24.8132 109.966 23.6641 109.966 22.1951C109.966 21.2 109.576 20.2997 108.794 19.4941C108.012 18.6649 107.064 17.9541 105.95 17.3617C104.837 16.7457 103.723 16.1178 102.61 15.4781C101.496 14.8384 100.548 14.0328 99.7665 13.0614C98.9846 12.0663 98.5937 10.8698 98.5937 9.47191C98.5937 8.07401 99.2097 6.77088 100.442 5.56253C101.698 4.35418 103.557 3.75 106.022 3.75C107.633 3.75 109.67 4.11724 112.134 4.85173L111.779 7.26844C108.58 5.89423 105.844 5.20713 103.569 5.20713C102.337 5.79946 101.721 6.81827 101.721 8.26355ZM58.2697 4.17648V27.7038H55V4.17648H58.2697ZM68.8769 16.4732V27.7038H65.394V4.17648H73.0706C75.4636 4.17648 77.4183 4.70957 78.9347 5.77577C80.4747 6.84196 81.2447 8.25171 81.2447 10.005C81.2447 11.7346 80.6287 13.1088 79.3967 14.1276C78.1883 15.1227 76.5416 15.8098 74.4566 16.1889L83.9813 27.7038L79.8587 28.2014L71.6135 16.4732H68.8769ZM68.8769 15.407H71.1514C75.4162 15.407 77.5486 13.7248 77.5486 10.3604C77.5486 9.79176 77.4064 9.15205 77.1221 8.44125C76.5772 6.94858 75.4162 5.96531 73.6392 5.49145C72.0281 5.49145 70.4406 5.69284 68.8769 6.09562V15.407ZM92.038 27.7038V4.17648H88.7683V27.7038H92.038ZM104.841 31.5943H104.523V31.131H104.841V31.5943ZM104.815 35.5735H104.549V32.4003H104.815V35.5735ZM91.288 34.4248C91.288 35.4783 91.9671 35.5989 92.2971 35.5989C92.3732 35.5989 92.4304 35.5925 92.4557 35.5862V35.3387C92.405 35.3514 92.3542 35.3514 92.3098 35.3514C92.0559 35.3514 91.5546 35.2435 91.5546 34.4058V32.6605H92.3859V32.4194H91.5546V31.5182H91.288V32.4194H90.8691V32.6605H91.288V34.4248ZM92.861 33.9933C92.861 35.0023 93.6035 35.6497 94.4983 35.6497C94.9045 35.6497 95.3488 35.4783 95.628 35.2118L95.482 34.9896C95.2282 35.2435 94.8537 35.3895 94.4983 35.3895C93.7622 35.3895 93.1402 34.8627 93.1402 33.9425H95.6851C95.6915 33.8854 95.6978 33.8219 95.6978 33.7711C95.6978 33.0032 95.2662 32.3242 94.4031 32.3242C93.5908 32.3242 92.861 32.9207 92.861 33.9933ZM93.1592 33.695C93.2735 32.9525 93.8129 32.5717 94.3968 32.5717C94.9235 32.5717 95.3868 32.9207 95.4186 33.695H93.1592ZM96.8327 35.5735H96.5662V32.4003H96.8327V33.0032C96.8327 33.1492 96.8073 33.2634 96.8073 33.2634H96.82C96.9787 32.7748 97.3341 32.3749 97.8354 32.3749C97.8989 32.3749 97.9624 32.3813 98.0195 32.394V32.6605C98.0005 32.6542 97.937 32.6478 97.8735 32.6478C97.131 32.6478 96.8327 33.5554 96.8327 34.2027V35.5735ZM98.7229 35.5735H98.9895V33.9933C98.9895 33.2952 99.5099 32.5717 100.195 32.5717C100.893 32.5717 100.97 33.1111 100.97 33.6569V35.5735H101.236V33.9933C101.236 33.2888 101.737 32.5717 102.417 32.5717C103.089 32.5717 103.21 33.0603 103.21 33.6569V35.5735H103.476V33.5617C103.476 32.8065 103.235 32.3242 102.417 32.3242C101.871 32.3242 101.388 32.743 101.211 33.1873H101.198C101.128 32.6224 100.83 32.3242 100.195 32.3242C99.7003 32.3242 99.1355 32.743 98.9768 33.219H98.9641C98.9641 33.219 98.9895 33.1048 98.9895 32.9588V32.4003H98.7229V35.5735ZM105.918 35.5735H106.185V33.9933C106.185 33.1809 106.794 32.5844 107.518 32.5844C108.229 32.5844 108.298 33.1048 108.298 33.6569V35.5735H108.565V33.5617C108.565 32.8128 108.343 32.3242 107.518 32.3242C106.724 32.3242 106.28 32.9207 106.172 33.219H106.16C106.16 33.219 106.185 33.1048 106.185 32.9588V32.4003H105.918V35.5735ZM110.424 35.6497C109.91 35.6497 109.345 35.3641 109.345 34.7294C109.345 33.6506 110.748 33.6379 111.312 33.6379H111.522V33.53C111.522 32.8255 111.16 32.5844 110.652 32.5844C110.329 32.5844 110.005 32.6922 109.745 32.889L109.593 32.6732C109.84 32.4574 110.265 32.3242 110.665 32.3242C111.395 32.3242 111.788 32.7303 111.788 33.5236V35.5735H111.522V35.1546C111.522 34.9833 111.547 34.8691 111.547 34.8691H111.535C111.376 35.2816 110.976 35.6497 110.424 35.6497ZM111.319 33.8854C110.779 33.8854 109.624 33.8854 109.624 34.7104C109.624 35.0468 109.897 35.4022 110.437 35.4022C111.128 35.4022 111.522 34.685 111.522 34.0567V33.8854H111.319ZM112.86 34.9325C112.86 35.5291 113.298 35.5989 113.482 35.5989C113.532 35.5989 113.571 35.5925 113.596 35.5862V35.3387C113.558 35.345 113.526 35.345 113.501 35.345C113.355 35.345 113.126 35.2943 113.126 34.85V31.131H112.86V34.9325ZM60.5952 35.5735H60.3287V32.6605H59.9289V32.4193H60.3287V32.2734C60.3287 31.2262 61.0141 31.0993 61.3314 31.0993C61.3949 31.0993 61.4457 31.1056 61.4964 31.112V31.3595C61.471 31.3532 61.4139 31.3468 61.3505 31.3468C61.0966 31.3468 60.5952 31.4484 60.5952 32.267V32.4193H61.4647V32.6605H60.5952V35.5735ZM55.1199 31.5943H55.4372V31.131H55.1199V31.5943ZM55.1452 35.5735H55.4118V32.4003H55.1452V35.5735ZM56.5149 35.5735H56.7815V33.9933C56.7815 33.1809 57.3907 32.5844 58.1142 32.5844C58.825 32.5844 58.8948 33.1048 58.8948 33.6569V35.5735H59.1614V33.5617C59.1614 32.8128 58.9392 32.3242 58.1142 32.3242C57.3209 32.3242 56.8767 32.9207 56.7688 33.219H56.7561C56.7561 33.219 56.7815 33.1048 56.7815 32.9588V32.4003H56.5149V35.5735ZM61.8333 33.9679C61.8333 34.9135 62.5695 35.6497 63.4771 35.6497C64.3846 35.6497 65.1208 34.9135 65.1208 33.9679C65.1208 33.0413 64.3846 32.3242 63.4771 32.3242C62.5695 32.3242 61.8333 33.0413 61.8333 33.9679ZM62.1126 33.9679C62.1126 33.1809 62.7218 32.5844 63.4771 32.5844C64.2323 32.5844 64.8415 33.1809 64.8415 33.9679C64.8415 34.7739 64.2323 35.3895 63.4771 35.3895C62.7218 35.3895 62.1126 34.7739 62.1126 33.9679ZM66.2639 35.5735H65.9973V32.4003H66.2639V33.0032C66.2639 33.1492 66.2385 33.2634 66.2385 33.2634H66.2512C66.4098 32.7747 66.7652 32.3749 67.2666 32.3749C67.3301 32.3749 67.3935 32.3813 67.4506 32.394V32.6605C67.4316 32.6542 67.3681 32.6478 67.3047 32.6478C66.5621 32.6478 66.2639 33.5554 66.2639 34.2027V35.5735ZM68.1541 35.5735H68.4206V33.9933C68.4206 33.2951 68.941 32.5717 69.6265 32.5717C70.3246 32.5717 70.4007 33.1111 70.4007 33.6569V35.5735H70.6673V33.9933C70.6673 33.2888 71.1686 32.5717 71.8477 32.5717C72.5204 32.5717 72.641 33.0603 72.641 33.6569V35.5735H72.9075V33.5617C72.9075 32.8065 72.6664 32.3242 71.8477 32.3242C71.3019 32.3242 70.8196 32.743 70.6419 33.1873H70.6292C70.5594 32.6224 70.2611 32.3242 69.6265 32.3242C69.1314 32.3242 68.5666 32.743 68.4079 33.219H68.3953C68.3953 33.219 68.4206 33.1048 68.4206 32.9588V32.4003H68.1541V35.5735ZM74.7668 35.6497C74.2528 35.6497 73.6879 35.3641 73.6879 34.7294C73.6879 33.6505 75.0905 33.6379 75.6553 33.6379H75.8648V33.53C75.8648 32.8255 75.503 32.5844 74.9953 32.5844C74.6716 32.5844 74.348 32.6922 74.0878 32.889L73.9355 32.6732C74.183 32.4574 74.6082 32.3242 75.008 32.3242C75.7378 32.3242 76.1313 32.7303 76.1313 33.5236V35.5735H75.8648V35.1546C75.8648 34.9833 75.8901 34.8691 75.8901 34.8691H75.8775C75.7188 35.2816 75.319 35.6497 74.7668 35.6497ZM75.6617 33.8854C75.1222 33.8854 73.9672 33.8854 73.9672 34.7104C73.9672 35.0468 74.2401 35.4022 74.7795 35.4022C75.4713 35.4022 75.8648 34.685 75.8648 34.0567V33.8854H75.6617ZM77.2731 34.4248C77.2731 35.4783 77.9521 35.5989 78.2821 35.5989C78.3583 35.5989 78.4154 35.5925 78.4408 35.5862V35.3387C78.39 35.3514 78.3393 35.3514 78.2948 35.3514C78.041 35.3514 77.5396 35.2435 77.5396 34.4058V32.6605H78.371V32.4193H77.5396V31.5182H77.2731V32.4193H76.8542V32.6605H77.2731V34.4248ZM79.3973 31.5943H79.0799V31.131H79.3973V31.5943ZM79.3719 35.5735H79.1053V32.4003H79.3719V35.5735ZM80.2465 33.9679C80.2465 34.9135 80.9827 35.6497 81.8903 35.6497C82.7978 35.6497 83.534 34.9135 83.534 33.9679C83.534 33.0413 82.7978 32.3242 81.8903 32.3242C80.9827 32.3242 80.2465 33.0413 80.2465 33.9679ZM80.5258 33.9679C80.5258 33.1809 81.135 32.5844 81.8903 32.5844C82.6455 32.5844 83.2547 33.1809 83.2547 33.9679C83.2547 34.7739 82.6455 35.3895 81.8903 35.3895C81.135 35.3895 80.5258 34.7739 80.5258 33.9679ZM84.6771 35.5735H84.4105V32.4003H84.6771V32.9588C84.6771 33.1048 84.6517 33.219 84.6517 33.219H84.6644C84.7723 32.9207 85.2165 32.3242 86.0098 32.3242C86.8348 32.3242 87.057 32.8128 87.057 33.5617V35.5735H86.7904V33.6569C86.7904 33.1048 86.7206 32.5844 86.0098 32.5844C85.2863 32.5844 84.6771 33.1809 84.6771 33.9933V35.5735Z" fill="url(#paint1_linear_14_1012)"/>
<defs>
<linearGradient id="paint0_linear_14_1012" x1="20.16" y1="1.94637e-08" x2="18.2351" y2="39.9149" gradientUnits="userSpaceOnUse">
<stop stop-color="#13AB53"/>
<stop offset="1" stop-color="#17AA55"/>
</linearGradient>
<linearGradient id="paint1_linear_14_1012" x1="84.548" y1="3.75" x2="83.7114" y2="35.6339" gradientUnits="userSpaceOnUse">
<stop stop-color="#13AB53"/>
<stop offset="1" stop-color="#17AA55"/>
</linearGradient>
</defs>
</svg>
